<?xml version="1.0" standalone="no"?>
<!DOCTYPE svg PUBLIC "-//W3C//DTD SVG 20010904//EN"
 "http://www.w3.org/TR/2001/REC-SVG-20010904/DTD/svg10.dtd">
<svg version="1.0" xmlns="http://www.w3.org/2000/svg"
 width="294.000000pt" height="294.000000pt" viewBox="0 0 294.000000 294.000000"
 preserveAspectRatio="xMidYMid meet">
<metadata>
Created by potrace 1.14, written by Peter Selinger 2001-2017
</metadata>
<g transform="translate(0.000000,294.000000) scale(0.100000,-0.100000)"
fill="#000000" stroke="none">
<path d="M0 1470 l0 -1470 1470 0 1470 0 0 1470 0 1470 -1470 0 -1470 0 0
-1470z m2910 -5 l0 -1435 -1435 0 -1435 0 0 1435 0 1435 1435 0 1435 0 0
-1435z"/>
<path d="M441 2544 c-38 -31 -42 -81 -11 -109 l20 -18 -25 -27 c-56 -59 -19
-148 66 -157 106 -12 168 79 105 154 -24 28 -24 29 -5 52 27 33 24 68 -10 102
-39 39 -96 40 -140 3z m99 -34 c24 -24 24 -29 4 -58 -18 -26 -41 -28 -66 -5
-22 20 -23 32 -2 61 19 27 38 28 64 2z m10 -140 c11 -11 20 -29 20 -40 0 -26
-34 -60 -60 -60 -26 0 -60 34 -60 60 0 11 9 29 20 40 11 11 29 20 40 20 11 0
29 -9 40 -20z"/>
<path d="M1460 2563 c-48 -18 -86 -77 -95 -149 -9 -68 8 -126 47 -159 27 -23
39 -26 76 -22 65 7 97 43 97 108 0 43 -4 54 -28 75 -33 28 -82 32 -115 8 -26
-18 -29 -7 -11 46 15 41 62 63 108 50 28 -8 31 -7 31 15 0 12 -7 26 -16 29
-19 7 -73 7 -94 -1z m48 -179 c15 -10 22 -25 22 -48 0 -39 -15 -56 -52 -56
-56 0 -77 89 -25 110 30 12 30 12 55 -6z"/>
<path d="M2370 2557 c-15 -8 -26 -23 -28 -39 l-3 -26 39 19 c61 31 113 1 96
-55 -3 -12 -37 -50 -75 -86 -61 -58 -69 -69 -69 -103 l0 -37 105 0 105 0 0 25
c0 24 -2 25 -75 25 -41 0 -75 3 -75 7 0 4 32 36 70 72 65 61 70 69 70 108 0
55 -7 71 -41 88 -34 18 -85 19 -119 2z"/>
<path d="M438 1593 c-11 -3 -18 -14 -18 -28 0 -22 2 -24 27 -14 40 15 82 2 90
-28 8 -33 -25 -63 -68 -63 -22 0 -29 -5 -29 -19 0 -14 10 -20 42 -25 53 -9 68
-21 68 -56 0 -48 -51 -67 -122 -46 -24 7 -28 5 -28 -13 0 -25 34 -41 88 -41
46 0 79 17 105 52 27 36 17 93 -21 115 l-28 16 28 28 c36 35 35 63 -1 100 -24
24 -37 29 -73 28 -24 -1 -51 -3 -60 -6z"/>
<path d="M1445 1570 c-30 -18 -50 -37 -50 -47 0 -18 3 -19 45 -8 l25 6 -3
-131 -3 -130 30 0 31 0 0 170 c0 130 -3 170 -12 169 -7 0 -35 -13 -63 -29z"/>
<path d="M2356 1563 c-3 -21 -6 -62 -6 -91 l0 -54 29 7 c44 9 101 -18 101 -49
0 -40 -10 -54 -44 -66 -23 -7 -41 -7 -60 0 -36 13 -36 14 -36 -14 0 -28 16
-36 74 -36 58 0 108 34 120 82 17 69 -30 128 -104 128 -28 0 -30 2 -30 40 l0
40 60 0 c57 0 60 1 60 25 0 25 -1 25 -79 25 l-78 0 -7 -37z"/>
<path d="M455 628 c-37 -20 -55 -51 -55 -100 0 -40 4 -50 31 -72 35 -30 83
-34 116 -11 20 14 21 14 13 -22 -15 -64 -55 -88 -122 -70 -25 7 -28 5 -28 -17
0 -40 82 -50 138 -16 91 55 98 261 11 305 -33 18 -76 19 -104 3z m93 -51 c15
-12 16 -69 0 -85 -7 -7 -27 -12 -45 -12 -26 0 -36 6 -44 24 -30 65 33 116 89
73z"/>
<path d="M1360 615 c0 -24 2 -25 75 -25 41 0 75 -2 75 -4 0 -2 -13 -34 -30
-70 -27 -62 -70 -187 -70 -207 0 -5 13 -9 28 -9 26 0 29 4 46 70 9 38 37 110
62 160 24 50 44 96 44 101 0 5 -51 9 -115 9 l-115 0 0 -25z"/>
<path d="M2432 588 c-16 -29 -50 -80 -76 -112 -25 -33 -46 -70 -46 -83 0 -22
3 -23 75 -23 l75 0 0 -35 c0 -32 2 -35 30 -35 28 0 30 3 30 34 0 28 4 35 23
38 14 2 23 11 25 26 3 18 -1 22 -22 22 l-26 0 0 110 0 110 -29 0 c-25 0 -34
-8 -59 -52z m28 -103 l0 -65 -45 0 -45 0 43 64 c23 36 43 65 45 65 1 1 2 -28
2 -64z"/>
</g>
</svg>
