<svg version="1.1" xmlns="http://www.w3.org/2000/svg" xmlns:xlink="http://www.w3.org/1999/xlink"  viewBox="0 0 256 256">
<path fill="#ffffff" d="M128,10C62.8,10,10,62.8,10,128c0,65.2,52.8,118,118,118c65.2,0,118-52.8,118-118C246,62.8,193.2,10,128,10z M180.6,159.6c5.8,5.8,5.8,15.2,0,21c-5.8,5.8-15.2,5.8-21,0L128,149l-31.6,31.6c-5.8,5.8-15.2,5.8-21,0c-5.8-5.8-5.8-15.2,0-21L107,128L75.4,96.4c-5.8-5.8-5.8-15.2,0-21c5.8-5.8,15.2-5.8,21,0L128,107l31.6-31.6c5.8-5.8,15.2-5.8,21,0c5.8,5.8,5.8,15.2,0,21L149,128L180.6,159.6z"/>
</svg>